<svg width="22" height="22" viewBox="0 0 22 22" fill="none" xmlns="http://www.w3.org/2000/svg">
<path fill-rule="evenodd" clip-rule="evenodd" d="M11.7056 2.5917C12.7343 1.59811 14.1121 1.04833 15.5423 1.06075C16.9725 1.07318 18.3405 1.64683 19.3519 2.65815C20.3632 3.66946 20.9368 5.03753 20.9492 6.4677C20.9617 7.89786 20.4119 9.27569 19.4183 10.3044L19.4072 10.3157L16.6801 13.0429C16.1271 13.596 15.4616 14.0238 14.7288 14.2972C13.996 14.5705 13.2129 14.6831 12.4328 14.6272C11.6526 14.5713 10.8936 14.3483 10.2072 13.9733C9.52082 13.5983 8.92311 13.0801 8.45461 12.4538C8.15388 12.0517 8.23601 11.482 8.63806 11.1813C9.0401 10.8805 9.60982 10.9627 9.91055 11.3647C10.2229 11.7823 10.6214 12.1278 11.079 12.3778C11.5365 12.6278 12.0426 12.7764 12.5627 12.8137C13.0828 12.8509 13.6048 12.7759 14.0933 12.5936C14.5819 12.4114 15.0255 12.1262 15.3942 11.7574L15.3943 11.7573L18.1157 9.03594C18.7748 8.3507 19.1394 7.43445 19.1311 6.48349C19.1229 5.53005 18.7404 4.61801 18.0662 3.9438C17.392 3.26958 16.4799 2.88715 15.5265 2.87887C14.5751 2.8706 13.6585 3.23551 12.9732 3.89518L11.4144 5.44484C11.0584 5.79883 10.4828 5.79715 10.1288 5.44109C9.77481 5.08504 9.77649 4.50944 10.1325 4.15545L11.6962 2.6009L11.7056 2.5917Z" fill="#7A7C89"/>
<path fill-rule="evenodd" clip-rule="evenodd" d="M7.27143 7.70337C8.00425 7.43 8.7873 7.31744 9.56746 7.37331C10.3476 7.42918 11.1066 7.65219 11.793 8.02719C12.4794 8.4022 13.0771 8.92044 13.5456 9.54677C13.8464 9.94881 13.7642 10.5185 13.3622 10.8193C12.9601 11.12 12.3904 11.0379 12.0897 10.6358C11.7774 10.2183 11.3789 9.87278 10.9213 9.62277C10.4637 9.37277 9.95768 9.2241 9.43758 9.18685C8.91747 9.1496 8.39544 9.22464 7.90689 9.40689C7.41834 9.58913 6.97469 9.87431 6.60605 10.2431L3.88456 12.9646C3.22543 13.6498 2.86084 14.5661 2.8691 15.517C2.87739 16.4705 3.25982 17.3825 3.93403 18.0567C4.60824 18.7309 5.52029 19.1134 6.47373 19.1217C7.42468 19.1299 8.34092 18.7653 9.02617 18.1062L10.5748 16.5576C10.9299 16.2025 11.5055 16.2025 11.8605 16.5576C12.2155 16.9126 12.2155 17.4882 11.8605 17.8432L10.3059 19.3978L10.2947 19.4088C9.26592 20.4024 7.88809 20.9522 6.45793 20.9398C5.02777 20.9273 3.6597 20.3537 2.64838 19.3424C1.63706 18.3311 1.06342 16.963 1.05099 15.5328C1.03856 14.1027 1.58835 12.7248 2.58194 11.6961L2.59301 11.6848L5.32017 8.95767C5.32013 8.95771 5.32021 8.95764 5.32017 8.95767C5.87311 8.40456 6.53865 7.97671 7.27143 7.70337Z" fill="#7A7C89"/>
</svg>
