<svg width="130" height="31" viewBox="0 0 130 31" fill="none" xmlns="http://www.w3.org/2000/svg">
<path d="M125.23 1.05176C125.691 1.05176 126.085 1.13944 126.414 1.31479C126.743 1.46823 127.006 1.67647 127.203 1.9395C127.4 2.20254 127.543 2.49845 127.63 2.82724C127.718 3.13411 127.762 3.44099 127.762 3.74786C127.762 4.05474 127.718 4.37257 127.63 4.70136C127.543 5.00824 127.389 5.29319 127.17 5.55623C126.973 5.79734 126.71 6.00558 126.381 6.18094C126.074 6.33437 125.691 6.41109 125.23 6.41109H119.937C119.586 6.41109 119.345 6.47685 119.213 6.60837C119.082 6.71797 119.016 6.94812 119.016 7.29883V12.691C119.016 13.0418 119.082 13.2829 119.213 13.4144C119.345 13.5459 119.586 13.6117 119.937 13.6117H125.691C126.151 13.6117 126.545 13.6993 126.874 13.8747C127.203 14.0281 127.466 14.2364 127.663 14.4994C127.861 14.7405 128.003 15.0255 128.091 15.3543C128.2 15.6611 128.255 15.968 128.255 16.2749C128.255 16.5818 128.2 16.8996 128.091 17.2284C128.003 17.5353 127.85 17.8202 127.63 18.0833C127.433 18.3244 127.17 18.5326 126.841 18.708C126.534 18.8614 126.151 18.9381 125.691 18.9381H117.569V24.8893H126.841C127.345 24.8893 127.773 24.966 128.124 25.1194C128.474 25.2729 128.759 25.4811 128.978 25.7441C129.198 25.9853 129.351 26.2702 129.439 26.599C129.548 26.9059 129.603 27.2237 129.603 27.5525C129.603 28.232 129.384 28.8458 128.946 29.3938C128.529 29.9417 127.828 30.2157 126.841 30.2157H101.59C100.604 30.2157 99.8912 29.9417 99.4528 29.3938C99.0364 28.8458 98.8281 28.232 98.8281 27.5525C98.8281 27.2237 98.872 26.9059 98.9596 26.599C99.0692 26.2702 99.2336 25.9853 99.4528 25.7441C99.672 25.4811 99.957 25.2729 100.308 25.1194C100.658 24.966 101.086 24.8893 101.59 24.8893H110.862V18.9381H105.042C104.056 18.9381 103.223 18.8504 102.543 18.6751C101.886 18.4997 101.36 18.2148 100.965 17.8202C100.571 17.4257 100.286 16.9106 100.11 16.2749C99.9351 15.6173 99.8474 14.8063 99.8474 13.8418V6.14805C99.8474 5.20551 99.9351 4.41641 100.11 3.78074C100.286 3.12315 100.571 2.59709 100.965 2.20253C101.36 1.78606 101.886 1.49015 102.543 1.31479C103.223 1.13944 104.056 1.05176 105.042 1.05176H125.23ZM106.39 12.691C106.39 13.0418 106.456 13.2829 106.588 13.4144C106.719 13.5459 106.96 13.6117 107.311 13.6117H112.605V6.41109H107.311C106.96 6.41109 106.719 6.47685 106.588 6.60837C106.456 6.71797 106.39 6.94812 106.39 7.29883V12.691Z" fill="#1B1B1B"/>
<path d="M84.6562 23.6731C85.1384 23.6731 85.533 23.7608 85.8399 23.9362C86.1687 24.0896 86.4207 24.2978 86.5961 24.5609C86.7934 24.8239 86.9249 25.1198 86.9906 25.4486C87.0783 25.7774 87.1222 26.0952 87.1222 26.4021C87.1222 26.7309 87.0783 27.0597 86.9906 27.3885C86.9249 27.7173 86.7934 28.0242 86.5961 28.3091C86.3988 28.5722 86.1358 28.7913 85.807 28.9667C85.5001 29.1421 85.1165 29.2297 84.6562 29.2297H72.0305C71.0442 29.2297 70.2222 29.1311 69.5646 28.9338C68.9289 28.7585 68.4138 28.4735 68.0193 28.079C67.6466 27.6625 67.3836 27.1364 67.2302 26.5008C67.0767 25.8432 67 25.0431 67 24.1006V4.50447C67 3.95648 67.0877 3.48521 67.263 3.09066C67.4603 2.67419 67.7124 2.33443 68.0193 2.0714C68.3261 1.80836 68.6768 1.62204 69.0714 1.51245C69.4879 1.38093 69.9153 1.31517 70.3537 1.31517C71.2743 1.31517 72.0415 1.57821 72.6552 2.10428C73.2909 2.60843 73.6087 3.40849 73.6087 4.50447V22.7525C73.6087 23.1251 73.6745 23.3772 73.806 23.5087C73.9375 23.6183 74.1896 23.6731 74.5622 23.6731H84.6562ZM89.2593 30.8737V3.25505C89.2593 2.18099 89.5881 1.36997 90.2457 0.82198C90.9033 0.273991 91.6705 0 92.5473 0C93.424 0 94.1912 0.273991 94.8488 0.82198C95.5064 1.36997 95.8352 2.18099 95.8352 3.25505V30.8737H89.2593Z" fill="#1B1B1B"/>
<path d="M37.8775 29.6243C36.8035 29.6243 35.9267 29.5366 35.2472 29.3613C34.5896 29.1859 34.0745 28.89 33.7019 28.4735C33.3512 28.057 33.11 27.4981 32.9785 26.7967C32.847 26.0952 32.7812 25.2294 32.7812 24.1992V6.51011C32.7812 5.47989 32.847 4.61407 32.9785 3.91264C33.11 3.21122 33.3512 2.65227 33.7019 2.2358C34.0745 1.81932 34.5896 1.52341 35.2472 1.34805C35.9267 1.1727 36.8035 1.08502 37.8775 1.08502H45.5713C46.6454 1.08502 47.5112 1.1727 48.1688 1.34805C48.8483 1.52341 49.3634 1.81932 49.7141 2.2358C50.0867 2.65227 50.3388 3.21122 50.4703 3.91264C50.6019 4.61407 50.6676 5.47989 50.6676 6.51011V29.6243H37.8775ZM54.2515 3.1893C54.2515 2.13716 54.5803 1.34805 55.2378 0.821983C55.8954 0.273994 56.6517 0 57.5065 0C57.923 0 58.3285 0.0767181 58.7231 0.230154C59.1176 0.361673 59.4574 0.558949 59.7423 0.821983C60.0492 1.08502 60.2903 1.41381 60.4657 1.80836C60.6629 2.20292 60.7616 2.66323 60.7616 3.1893V11.5078H61.8466C62.3507 11.5078 62.7672 11.5955 63.096 11.7708C63.4248 11.9462 63.6878 12.1763 63.8851 12.4613C64.0824 12.7243 64.2249 13.0312 64.3125 13.3819C64.4002 13.7107 64.4441 14.0395 64.4441 14.3683C64.4441 14.6971 64.4002 15.0368 64.3125 15.3875C64.2249 15.7163 64.0824 16.0232 63.8851 16.3082C63.6878 16.5712 63.4138 16.7904 63.0631 16.9657C62.7343 17.1411 62.3288 17.2288 61.8466 17.2288H60.7616V30.8737H54.2515V3.1893ZM39.1598 23.2786C39.1598 23.6512 39.2256 23.9362 39.3571 24.1334C39.5106 24.3088 39.8065 24.3965 40.2449 24.3965H44.289V7.39785C44.289 7.06906 44.2342 6.80602 44.1246 6.60875C44.015 6.41147 43.7739 6.31284 43.4013 6.31284H40.0147C39.6421 6.31284 39.401 6.41147 39.2914 6.60875C39.2037 6.80602 39.1598 7.06906 39.1598 7.39785V23.2786Z" fill="#1B1B1B"/>
<path d="M22.2922 16.7027H15.9465C15.4423 16.7027 15.0149 16.615 14.6642 16.4397C14.3354 16.2643 14.0504 16.0451 13.8093 15.7821C13.5901 15.4971 13.4257 15.1903 13.3161 14.8615C13.2285 14.5108 13.1846 14.171 13.1846 13.8422C13.1846 13.5134 13.2285 13.1846 13.3161 12.8558C13.4257 12.5051 13.5901 12.1982 13.8093 11.9352C14.0285 11.6503 14.3135 11.4201 14.6642 11.2447C15.0149 11.0694 15.4423 10.9817 15.9465 10.9817H22.2922V3.1893C22.2922 2.13716 22.621 1.34805 23.2786 0.821983C23.9362 0.273994 24.6924 0 25.5473 0C25.9637 0 26.3692 0.0767181 26.7638 0.230154C27.1583 0.361673 27.5091 0.558949 27.8159 0.821983C28.1228 1.08502 28.3639 1.41381 28.5393 1.80836C28.7365 2.20292 28.8352 2.66323 28.8352 3.1893V30.8737H22.2922V16.7027ZM16.9986 23.6731C17.4809 23.6731 17.8754 23.7608 18.1823 23.9362C18.5111 24.1115 18.7631 24.3307 18.9385 24.5938C19.1358 24.8568 19.2673 25.1527 19.3331 25.4815C19.4207 25.8103 19.4646 26.1281 19.4646 26.435C19.4646 26.7638 19.4207 27.0926 19.3331 27.4214C19.2673 27.7502 19.1358 28.0461 18.9385 28.3091C18.7412 28.5722 18.4782 28.7914 18.1494 28.9667C17.8425 29.1421 17.4589 29.2297 16.9986 29.2297H4.99766C4.01128 29.2297 3.1893 29.1421 2.53171 28.9667C1.89604 28.7914 1.39189 28.5064 1.01926 28.1118C0.646627 27.6954 0.383592 27.1693 0.230155 26.5336C0.0767185 25.876 0 25.076 0 24.1334V4.43871C0 3.34273 0.328794 2.55363 0.98638 2.0714C1.64397 1.56725 2.42211 1.31517 3.32081 1.31517C4.24144 1.31517 5.00862 1.56725 5.62237 2.0714C6.23612 2.55363 6.54299 3.34273 6.54299 4.43871V22.7854C6.54299 23.158 6.59779 23.3991 6.70739 23.5087C6.8389 23.6183 7.09098 23.6731 7.46361 23.6731H16.9986Z" fill="#1B1B1B"/>
</svg>
