<svg width="24" height="24" viewBox="0 0 24 24" fill="none" xmlns="http://www.w3.org/2000/svg">
<path d="M12.8313 3.62651L12.8305 3.61532L12.829 3.60421C12.7572 3.075 12.304 2.66764 11.7554 2.66764C11.157 2.66764 10.6721 3.15295 10.6723 3.75118C10.6723 3.75119 10.6723 3.7512 10.6723 3.75121L10.6734 10.6676H3.75781H3.74669L3.73559 10.6684L3.63382 10.6752L3.62247 10.6759L3.6112 10.6775C3.08212 10.7493 2.67448 11.2022 2.67448 11.751C2.67448 12.3493 3.15949 12.8343 3.75781 12.8343H10.6736L10.6755 19.7505L10.6755 19.7617L10.6762 19.7729L10.6831 19.8747L10.6839 19.8859L10.6854 19.897C10.7573 20.4263 11.2104 20.8336 11.759 20.8336C12.3575 20.8336 12.8423 20.3482 12.8421 19.75L12.8402 12.8343H19.7599H19.771L19.7821 12.8336L19.8839 12.8268L19.8953 12.826L19.9066 12.8245C20.4355 12.7526 20.8432 12.2997 20.8432 11.751C20.8432 11.1527 20.3582 10.6676 19.7599 10.6676H12.8401L12.8389 3.75077L12.8389 3.73951L12.8382 3.72828L12.8313 3.62651Z" fill="#883FFF" stroke="#883FFF" stroke-width="0.666667"/>
</svg>
