<svg width="40" height="40" viewBox="0 0 40 40" fill="none" xmlns="http://www.w3.org/2000/svg">
<path d="M23.6552 4.17173C22.4612 3.90543 21.2427 3.7641 20.0194 3.75C18.7657 3.76442 17.5459 3.9057 16.3504 4.17157C15.8288 4.28757 15.4386 4.72225 15.3794 5.25327L15.096 7.79607C15.0145 8.5237 14.5925 9.17015 13.9586 9.53782C13.322 9.90975 12.55 9.95427 11.8784 9.65953L9.54443 8.63427C9.05893 8.42098 8.49168 8.53727 8.12924 8.92437C6.44226 10.7261 5.18589 12.8869 4.45464 15.2443C4.29686 15.753 4.47869 16.3057 4.90763 16.6214L6.97854 18.1455C7.56956 18.5797 7.91814 19.2683 7.91814 20.0008C7.91814 20.7332 7.56956 21.4218 6.97933 21.8555L4.90711 23.3822C4.47879 23.6977 4.29713 24.2498 4.45436 24.758C5.18434 27.1175 6.44006 29.2808 8.12699 31.0848C8.48908 31.4722 9.05606 31.5888 9.54164 31.376L11.886 30.349C12.5544 30.0572 13.3232 30.1 13.9564 30.465C14.5896 30.83 15.012 31.4738 15.0946 32.2L15.376 34.7407C15.4341 35.2653 15.8155 35.697 16.3291 35.8192C18.7432 36.3935 21.2584 36.3935 23.6724 35.8192C24.186 35.697 24.5674 35.2653 24.6255 34.7407L24.9074 32.1962C24.9879 31.4687 25.4095 30.8228 26.0432 30.4567C26.677 30.0903 27.447 30.0473 28.1177 30.3408L30.4615 31.3677C30.947 31.5805 31.5139 31.4638 31.8759 31.0768C33.5619 29.2748 34.8175 27.1142 35.5485 24.7572C35.7062 24.2487 35.5245 23.6962 35.096 23.3805L33.0252 21.8548C32.4335 21.4202 32.085 20.7315 32.085 19.9992C32.085 19.2667 32.4335 18.578 33.0239 18.1443L35.093 16.6192C35.5214 16.3034 35.7029 15.751 35.5452 15.2426C34.8139 12.8853 33.5575 10.7244 31.8705 8.9227C31.5082 8.5356 30.9409 8.41932 30.4554 8.6326L28.121 9.65805C27.8289 9.7873 27.5162 9.85313 27.2 9.85263C26.024 9.8514 25.0375 8.96643 24.909 7.79802L24.6254 5.25327C24.5662 4.72252 24.1764 4.28798 23.6552 4.17173Z" fill="#ABADB8"/>
<circle cx="20" cy="20" r="5" fill="white"/>
</svg>
