<svg width="32" height="32" viewBox="0 0 32 32" fill="none" xmlns="http://www.w3.org/2000/svg">
<circle cx="16" cy="16" r="16" fill="#DCCFFF"/>
<path d="M16.8963 10.0852L16.8951 10.0684L16.8929 10.0518C16.8199 9.51422 16.3598 9.10059 15.8028 9.10059C15.1951 9.10059 14.7028 9.59339 14.7029 10.2008C14.7029 10.2008 14.7029 10.2008 14.7029 10.2008L14.7038 15.5006H9.40469H9.388L9.37135 15.5017L9.28994 15.5071L9.27291 15.5083L9.25601 15.5106C8.71865 15.5835 8.30469 16.0433 8.30469 16.6006C8.30469 17.2081 8.79716 17.7006 9.40469 17.7006H14.704L14.7055 23.0002L14.7055 23.0171L14.7066 23.0339L14.7122 23.1154L14.7133 23.1321L14.7156 23.1488C14.7885 23.6864 15.2486 24.1 15.8056 24.1C16.4134 24.1 16.9056 23.6071 16.9055 22.9997V22.9997L16.904 17.7006H22.2064H22.223L22.2397 17.6995L22.3211 17.694L22.3382 17.6929L22.3551 17.6906C22.8924 17.6176 23.3064 17.1579 23.3064 16.6006C23.3064 15.9931 22.8139 15.5006 22.2064 15.5006H16.9038L16.9029 10.2004L16.9029 10.1835L16.9018 10.1666L16.8963 10.0852Z" fill="#883FFF" stroke="#883FFF"/>
</svg>
