<svg width="32" height="32" viewBox="0 0 32 32" fill="none" xmlns="http://www.w3.org/2000/svg">
<circle cx="16" cy="16" r="16" fill="#E6E8F0"/>
<path d="M9.14249 18.2633L9.14249 18.2633L12.7425 21.8633C12.7425 21.8633 12.7425 21.8633 12.7425 21.8633C13.1721 22.2929 13.8686 22.2929 14.2981 21.8633C14.2981 21.8633 14.2981 21.8633 14.2981 21.8633L23.0981 13.0634C23.5277 12.6338 23.5277 11.9373 23.0981 11.5077C22.6685 11.0782 21.9721 11.0782 21.5425 11.5077L21.5425 11.5077L13.5203 19.5299L10.6981 16.7078C10.6981 16.7078 10.6981 16.7078 10.6981 16.7077C10.2685 16.2782 9.57206 16.2782 9.14249 16.7078C8.71292 17.1373 8.71292 17.8338 9.14249 18.2633Z" fill="#ABADB8" stroke="#ABADB8"/>
</svg>
